<?xml version="1.0" encoding="utf-8"?>
<svg width="1024px" height="1024px" viewBox="0 0 1024 1024" version="1.1" xmlns:xlink="http://www.w3.org/1999/xlink" xmlns="http://www.w3.org/2000/svg">
  <defs>
    <path d="M824 0C934.472 0 1024 89.5281 1024 200L1024 824C1024 934.472 934.472 1024 824 1024L200 1024C89.528 1024 0 934.472 0 824L0 200C0 89.5281 89.528 0 200 0L824 0Z" id="path_1" />
    <path d="M1024 0L1024 0L1024 1024L0 1024L0 0L1024 0Z" id="path_2" />
    <clipPath id="clip_1">
      <use xlink:href="#path_1" clip-rule="evenodd" fill-rule="evenodd" />
    </clipPath>
    <clipPath id="clip_2">
      <use xlink:href="#path_2" clip-rule="evenodd" fill-rule="evenodd" />
    </clipPath>
  </defs>
  <g id="app-icon">
    <path d="M824 0C934.472 0 1024 89.5281 1024 200L1024 824C1024 934.472 934.472 1024 824 1024L200 1024C89.528 1024 0 934.472 0 824L0 200C0 89.5281 89.528 0 200 0L824 0Z" id="app-icon" fill="#111827" stroke="none" />
    <g id="Frame" clip-path="url(#clip_1)">
      <path d="M1024 0L1024 0L1024 1024L0 1024L0 0L1024 0Z" id="Frame" fill="none" stroke="none" />
      <path d="M699.704 686.3C599.954 786.132 437.538 786.132 337.704 686.3C237.872 586.464 237.872 424.05 337.704 324.258C364.122 297.884 396.328 277.758 433.368 264.634C445.036 260.55 457.954 263.51 466.618 272.218C475.37 280.968 478.328 293.884 474.204 305.468C449.12 376.218 466.204 452.8 518.704 505.302C571.122 557.758 647.704 574.802 718.536 549.802C730.12 545.678 743.078 548.638 751.786 557.388C760.538 566.052 763.454 579.012 759.328 590.638C746.286 627.676 726.12 659.882 699.704 686.3L699.704 686.3ZM382.954 369.508C308.078 444.384 308.078 566.216 382.954 641.05C462.954 721.092 599.204 713.882 668.954 624.714C597.036 629.214 526.204 603.256 473.454 550.546C420.704 497.838 394.788 427.004 399.286 355.088C393.557 359.561 388.103 364.377 382.954 369.508L382.954 369.508Z" id="Shape" fill="#3338B5" fill-rule="evenodd" stroke="none" clip-path="url(#clip_2)" />
    </g>
  </g>
</svg>